<svg width="1030" height="675" viewBox="0 0 1030 675" fill="none" xmlns="http://www.w3.org/2000/svg">
<path d="M574.876 97.1457C546.876 241.146 424.543 190.812 366.876 147.646C263.376 115.812 46.3763 114.246 6.37626 362.646C-43.6237 673.146 215.876 657.646 247.376 645.146C278.876 632.646 311.376 551.646 574.876 645.146C785.676 719.946 836.043 634.646 834.876 582.646C830.876 542.812 844.776 468.746 932.376 491.146C1041.88 519.146 1051.88 218.646 996.376 199.646C940.876 180.646 932.376 253.146 876.876 137.146C821.376 21.1457 609.876 -82.8543 574.876 97.1457Z" fill="url(#paint0_linear)" fill-opacity="0.83"/>
<defs>
<linearGradient id="paint0_linear" x1="514.706" y1="0" x2="514.706" y2="674.568" gradientUnits="userSpaceOnUse">
<stop stop-color="#E7B3FF"/>
<stop offset="0.510417" stop-color="#9892CC"/>
<stop offset="1" stop-color="#446F96"/>
</linearGradient>
</defs>
</svg>
